<?xml version="1.0" standalone="no"?>
<!DOCTYPE svg PUBLIC "-//W3C//DTD SVG 20010904//EN"
 "http://www.w3.org/TR/2001/REC-SVG-20010904/DTD/svg10.dtd">
<svg version="1.0" xmlns="http://www.w3.org/2000/svg"
 width="250.000000pt" height="182.000000pt" viewBox="0 0 250.000000 182.000000"
 preserveAspectRatio="xMidYMid meet">

<g transform="translate(0.000000,182.000000) scale(0.100000,-0.100000)"
fill="#000000" stroke="none">
<path d="M0 910 l0 -910 1250 0 1250 0 0 910 0 910 -1250 0 -1250 0 0 -910z
m785 655 c48 -27 105 -73 105 -84 0 -10 -88 -101 -98 -101 -5 0 -17 10 -28 21
-28 32 -77 49 -139 49 -170 0 -282 -181 -246 -397 28 -174 104 -255 241 -257
69 0 126 21 164 63 11 12 24 21 30 21 11 0 96 -89 96 -101 0 -14 -96 -86 -132
-99 -20 -8 -35 -16 -33 -19 2 -3 -20 -8 -48 -11 -187 -17 -310 29 -404 151
-22 30 -41 56 -40 59 1 3 -6 21 -15 40 -26 54 -34 98 -37 191 -5 168 40 302
133 394 89 88 167 116 306 111 81 -3 102 -8 145 -31z m695 -2 c72 -35 110 -64
110 -85 -1 -7 -19 -33 -40 -58 -38 -43 -41 -44 -62 -30 -92 59 -164 74 -248
50 -39 -11 -70 -52 -70 -93 0 -53 45 -85 230 -159 96 -38 147 -73 185 -126 26
-38 30 -54 34 -123 4 -90 -6 -124 -55 -184 -92 -116 -315 -144 -483 -61 -39
19 -83 46 -97 60 l-27 25 26 33 c14 18 36 46 49 61 l23 28 30 -26 c102 -89
268 -107 337 -35 36 38 38 87 4 127 -16 20 -75 52 -173 97 -81 37 -161 78
-176 91 -44 39 -77 115 -77 176 0 86 16 124 74 183 68 68 125 87 251 83 77 -2
99 -7 155 -34z m438 -367 l2 -386 188 0 c104 0 191 -2 193 -4 2 -2 3 -36 1
-75 l-4 -71 -274 0 -274 0 0 463 0 462 82 -1 83 -2 3 -386z m-1007 -679 c-2
-46 -2 -48 18 -38 11 6 33 11 49 11 51 0 80 -69 61 -144 -11 -46 -37 -67 -74
-59 -11 3 -37 5 -57 5 l-38 1 0 139 c0 138 0 139 22 136 20 -3 22 -8 19 -51z
m965 20 c3 -20 -18 -32 -40 -24 -9 4 -12 14 -9 27 7 26 45 24 49 -3z m-1516
-84 l23 -98 26 95 c24 86 29 95 50 95 22 0 27 -9 50 -95 l25 -95 18 75 c9 41
20 85 23 98 4 15 13 22 31 22 19 0 24 -4 20 -17 -2 -10 -14 -54 -26 -98 -38
-141 -39 -145 -65 -145 -20 0 -26 8 -39 54 -9 30 -16 56 -16 59 0 3 -5 18 -11
34 -11 28 -11 27 -29 -32 -10 -33 -21 -72 -24 -87 -5 -23 -12 -28 -36 -28 -22
0 -30 5 -30 18 0 9 -14 64 -30 122 -17 58 -30 108 -30 113 0 4 10 7 23 7 21 0
25 -9 47 -97z m1003 57 c23 -26 27 -39 27 -90 0 -52 -4 -64 -29 -92 -27 -31
-34 -33 -108 -36 l-78 -4 3 132 3 133 77 -6 c70 -5 80 -9 105 -37z m-567 -45
c19 -19 24 -34 22 -58 l-3 -32 -57 1 c-49 2 -58 -1 -58 -16 0 -30 25 -43 70
-35 35 6 40 5 40 -13 0 -25 -49 -34 -105 -18 -34 10 -41 17 -51 51 -14 50 -2
104 27 128 32 26 85 22 115 -8z m796 -5 c10 -12 18 -37 18 -56 0 -31 -3 -34
-27 -32 -60 4 -93 -2 -93 -17 0 -22 36 -37 75 -29 30 5 35 4 35 -14 0 -24 -53
-35 -104 -21 -28 8 -38 17 -51 53 -32 83 12 152 90 142 24 -3 47 -13 57 -26z
m183 18 c3 -3 3 -12 0 -21 -5 -11 -16 -14 -44 -10 -56 8 -58 -12 -4 -39 49
-24 59 -42 49 -83 -11 -43 -128 -57 -143 -18 -9 23 12 37 37 23 23 -13 70 -6
70 10 0 5 -22 21 -50 35 -45 23 -50 29 -50 58 0 48 16 59 77 55 29 -3 55 -7
58 -10z m95 -88 c0 -93 -1 -100 -20 -100 -19 0 -20 7 -20 100 0 93 1 100 20
100 19 0 20 -7 20 -100z m226 88 c4 -6 0 -16 -9 -23 -10 -7 -17 -26 -17 -44 0
-33 -13 -43 -72 -55 -42 -9 -33 -26 13 -26 59 0 79 -14 79 -55 0 -29 -6 -39
-32 -55 -43 -26 -98 -26 -132 1 -29 23 -32 56 -7 75 8 7 12 21 9 37 -3 15 -1
27 4 27 5 0 4 9 -2 19 -15 29 -12 72 7 93 12 14 31 18 84 18 40 0 71 -5 75
-12z m66 1 c3 -9 9 -9 25 0 30 15 64 14 90 -4 19 -13 22 -27 25 -100 l3 -85
-26 0 c-26 0 -26 1 -27 70 -1 81 -5 90 -38 90 -31 0 -44 -32 -44 -110 0 -53
-2 -58 -20 -53 -18 5 -20 14 -20 104 0 79 3 99 14 99 8 0 16 -5 18 -11z"/>
<path d="M920 424 c-14 -35 -12 -56 5 -81 28 -40 75 -8 75 51 0 56 -62 79 -80
30z"/>
<path d="M1230 421 c0 -90 0 -91 25 -91 45 0 75 21 85 61 17 64 -9 105 -74
116 l-36 6 0 -92z"/>
<path d="M707 444 c-19 -19 -6 -35 28 -32 26 1 35 6 33 18 -3 16 -48 26 -61
14z"/>
<path d="M1497 443 c-17 -16 -4 -29 28 -30 37 -1 43 5 23 25 -13 13 -41 16
-51 5z"/>
<path d="M1970 445 c-20 -25 -8 -50 25 -50 21 0 31 5 33 18 4 21 -14 47 -33
47 -7 0 -18 -7 -25 -15z"/>
<path d="M1951 276 c-16 -20 -8 -32 26 -39 34 -6 75 12 71 32 -4 22 -80 27
-97 7z"/>
</g>
</svg>
