<?xml version="1.0" encoding="UTF-8" standalone="no"?>
<!-- Created with Inkscape (http://www.inkscape.org/) -->
<svg
   xmlns:svg="http://www.w3.org/2000/svg"
   xmlns="http://www.w3.org/2000/svg"
   version="1.0"
   width="1133.8583"
   height="320.66928"
   id="svg2">
  <defs
     id="defs4">
    <clipPath
       id="clipPath2446">
      <path
         d="M -72.262,-29.525 L -72.262,19.905 L 95.743,19.905 L 95.743,-29.525 L -72.262,-29.525 z"
         id="path2448" />
    </clipPath>
    <clipPath
       id="clipPath2438">
      <path
         d="M 0,0 L 651.969,0 L 651.969,822.047 L 0,822.047 L 0,0 z"
         id="path2440" />
    </clipPath>
    <clipPath
       id="clipPath2916">
      <path
         d="M 0.03,835.98 L 595.05,835.98 L 595.05,0 L 0.03,0 L 0.03,835.98 z"
         id="path2918" />
    </clipPath>
    <clipPath
       id="clipPath2898">
      <path
         d="M 0.03,835.98 L 595.05,835.98 L 595.05,0 L 0.03,0 L 0.03,835.98 z"
         id="path2900" />
    </clipPath>
  </defs>
  <g
     transform="translate(195.36307,-699.48451)"
     id="layer1">
    <path
       d="M 903.06215,766.81662 L 801.81365,766.81662 C 800.90735,766.81662 779.80612,767.01974 764.47822,782.3867 C 754.33775,792.55843 749.24407,806.75353 749.29095,824.57358 C 749.46282,880.83837 800.72765,881.61961 801.24335,881.61961 L 903.06215,881.61961 L 903.06215,817.44087 L 864.46895,817.44087 L 864.46895,842.01863 L 810.27445,842.01863 C 807.61825,841.9952 794.46215,841.00302 794.42305,824.16734 C 794.42305,807.50352 807.55575,806.52697 810.18845,806.4801 L 903.06215,806.4801 M 760.3611,824.52671 C 760.22829,778.68363 800.13395,777.88677 801.83705,777.88677 L 891.99195,777.88677 L 891.99195,795.40214 L 810.16505,795.40214 C 809.71975,795.40214 798.86835,795.48026 791.05595,803.28483 C 785.93885,808.37851 783.34515,815.3784 783.34515,824.11265 L 783.34515,824.19077 C 783.36855,833.02658 786.00135,840.11241 791.18875,845.25296 C 798.93865,852.96379 809.58695,853.0966 810.25095,853.0966 L 875.53905,853.0966 L 875.53905,828.51883 L 891.99195,828.51883 L 891.99195,870.54165 L 801.26675,870.54165 C 799.62615,870.54165 760.49391,869.66666 760.3611,824.52671 z M 741.91606,766.87912 L 696.73704,766.87912 L 648.94868,837.26089 L 601.22282,766.87912 L 555.9813,766.87912 L 555.9813,881.68992 L 595.5979,881.68992 L 595.62134,828.95633 L 631.05051,881.68992 L 666.72967,881.68992 L 702.31508,828.93289 L 702.31508,881.57274 L 741.91606,881.57274 L 741.91606,766.87912 z M 730.86153,777.96489 L 730.86153,870.50259 L 713.3696,870.50259 L 713.40866,792.74592 L 660.86257,870.61196 L 636.94104,870.61196 L 584.55119,792.65999 L 584.55119,870.61196 L 567.07489,870.61196 L 567.07489,777.96489 L 595.35572,777.96489 L 648.92524,856.98716 L 702.60414,777.96489 L 730.86153,777.96489 z M 546.23926,766.87912 L 445.02982,766.87912 C 444.12358,766.87912 423.02233,767.09005 407.69443,782.4492 C 397.55395,792.62093 392.46028,806.81603 392.50715,824.64389 C 392.67903,880.9165 443.94389,881.68992 444.45951,881.68992 L 546.41113,881.68992 L 546.41113,842.09676 L 453.46719,842.09676 C 450.83442,842.06551 437.67836,841.07334 437.6393,824.23765 C 437.59243,807.56602 450.74848,806.57385 453.40469,806.5426 L 546.2627,806.5426 L 546.23926,766.87912 z M 403.5773,824.59702 C 403.44449,778.76176 443.35015,777.96489 445.02982,777.96489 L 535.18473,777.96489 L 535.18473,795.48026 L 453.38126,795.48026 C 452.93595,795.48026 442.08455,795.54276 434.24873,803.33952 C 429.13161,808.48007 426.5379,815.51903 426.56134,824.2689 C 426.58478,833.1047 429.21755,840.18272 434.38154,845.33109 C 442.24079,853.12003 453.0297,853.16691 453.49063,853.16691 L 535.34098,853.16691 L 535.34098,870.61196 L 444.48295,870.61196 C 442.84235,870.5729 403.71011,869.72135 403.5773,824.59702 z M 318.56293,855.08875 C 302.28192,855.08875 289.06337,841.86239 289.06337,825.57356 C 289.06337,809.27693 302.28192,796.06619 318.56293,796.06619 C 334.85957,796.06619 348.07812,809.27693 348.07812,825.57356 C 348.07812,841.86239 334.85957,855.08875 318.56293,855.08875 z M 82.824215,769.74626 C 61.121405,769.74626 43.535726,787.32413 43.535726,809.01131 C 43.535726,830.7063 61.121405,848.3076 82.824215,848.3076 C 104.5036,848.3076 122.08927,830.7063 122.08927,809.01131 C 122.08927,787.32413 104.5036,769.74626 82.824215,769.74626 z M 82.824215,827.52666 C 72.613425,827.52666 64.332295,819.22991 64.332295,809.02693 C 64.332295,798.83958 72.613425,790.55064 82.824215,790.55064 C 93.011555,790.55064 101.29271,798.83958 101.29271,809.02693 C 101.29271,819.22991 93.011555,827.52666 82.824215,827.52666 z M -146.71146,734.95771 L -159.93001,805.23793 L -110.32918,805.23793 L -110.32918,881.52586 L -83.048332,881.52586 L -83.048332,734.95771 L -146.71146,734.95771 z M 67.410375,954.86072 C 47.082555,954.86072 30.606236,938.37659 30.606236,918.05657 C 30.606236,897.72094 47.082555,881.22899 67.410375,881.22899 C 87.738205,881.22899 104.23797,897.72094 104.23797,918.05657 C 104.23797,938.37659 87.738205,954.86072 67.410375,954.86072 z M -20.064895,768.76971 C -51.376935,768.76971 -76.759372,794.14434 -76.759372,825.48763 C -76.759372,856.79967 -51.376935,882.18992 -20.064895,882.18992 C 11.270575,882.18992 36.653016,856.79967 36.653016,825.48763 C 36.653016,794.14434 11.270575,768.76971 -20.064895,768.76971 z M -20.064895,855.01844 C -36.361525,855.01844 -49.564455,841.8077 -49.564455,825.52669 C -49.564455,809.22224 -36.361525,796.00369 -20.064895,796.00369 C -3.7682648,796.00369 9.4581052,809.22224 9.4581052,825.52669 C 9.4581052,841.8077 -3.7682648,855.01844 -20.064895,855.01844 z M 130.79227,881.52586 L 157.90124,881.52586 L 157.90124,771.48842 L 130.79227,771.48842 L 130.79227,881.52586 z M 66.988505,851.81536 C 30.293736,851.81536 0.55198518,881.5493 0.55198518,918.24407 C 0.55198518,954.93884 30.293736,984.68059 66.988505,984.68059 C 103.65986,984.68059 133.42504,954.93884 133.42504,918.24407 C 133.42504,881.5493 103.65986,851.81536 66.988505,851.81536 z M 130.80008,764.44165 L 157.89343,764.44165 L 157.89343,735.09834 L 130.80008,735.09834 L 130.80008,764.44165 z M 349.98434,768.73065 L 349.98434,778.33989 C 340.99229,772.33216 330.2112,768.83221 318.56293,768.83221 C 287.2509,768.83221 261.86846,794.20684 261.86846,825.54232 C 261.86846,856.86217 287.2509,882.2446 318.56293,882.2446 C 330.2112,882.2446 340.99229,878.73684 349.98434,872.73693 L 349.98434,881.64305 L 375.71834,881.64305 L 375.71834,768.73065 L 349.98434,768.73065 z M 249.55614,843.84673 C 244.14997,850.69819 235.80634,855.11219 226.39242,855.11219 C 210.09579,855.11219 196.89286,841.89364 196.89286,825.62044 C 196.89286,809.31599 210.09579,796.08963 226.39242,796.08963 C 234.80636,796.08963 242.38437,799.63645 247.75929,805.29261 L 265.07935,784.11324 C 254.93887,774.65244 241.36095,768.87128 226.39242,768.87128 C 195.08038,768.87128 169.69794,794.25371 169.69794,825.57356 C 169.69794,856.87779 195.08038,882.29148 226.39242,882.29148 C 241.75938,882.29148 255.68886,876.17438 265.89965,866.24484 L 249.55614,843.84673 z"
       id="path2910"
       style="fill:#000000;fill-opacity:1;fill-rule:nonzero;stroke:none" />
  </g>
</svg>
